<svg width="805" height="793" viewBox="0 0 805 793" fill="none" xmlns="http://www.w3.org/2000/svg">
<mask id="mask0" mask-type="alpha" maskUnits="userSpaceOnUse" x="100" y="364" width="323" height="323">
<path fill-rule="evenodd" clip-rule="evenodd" d="M261.5 687C350.694 687 423 614.694 423 525.5C423 436.306 350.694 364 261.5 364C172.306 364 100 436.306 100 525.5C100 614.694 172.306 687 261.5 687ZM261.5 591C297.675 591 327 561.675 327 525.5C327 489.325 297.675 460 261.5 460C225.325 460 196 489.325 196 525.5C196 561.675 225.325 591 261.5 591Z" fill="#C4C4C4"/>
</mask>
<g mask="url(#mask0)">
<path d="M242.775 388.166C245.624 366.232 277.376 366.232 280.225 388.166V388.166C282.396 404.879 303.714 410.591 313.951 397.202V397.202C327.385 379.632 354.883 395.508 346.384 415.927V415.927C339.907 431.487 355.513 447.093 371.073 440.616V440.616C391.492 432.117 407.368 459.615 389.798 473.049V473.049C376.409 483.286 382.121 504.604 398.834 506.775V506.775C420.768 509.624 420.768 541.376 398.834 544.225V544.225C382.121 546.396 376.409 567.714 389.798 577.951V577.951C407.368 591.385 391.492 618.883 371.073 610.384V610.384C355.513 603.907 339.907 619.513 346.384 635.073V635.073C354.883 655.492 327.385 671.368 313.951 653.798V653.798C303.714 640.409 282.396 646.121 280.225 662.834V662.834C277.376 684.768 245.624 684.768 242.775 662.834V662.834C240.604 646.121 219.286 640.409 209.049 653.798V653.798C195.615 671.368 168.117 655.492 176.616 635.073V635.073C183.093 619.513 167.487 603.907 151.927 610.384V610.384C131.508 618.883 115.632 591.385 133.202 577.951V577.951C146.591 567.714 140.879 546.396 124.166 544.225V544.225C102.232 541.376 102.232 509.624 124.166 506.775V506.775C140.879 504.604 146.591 483.286 133.202 473.049V473.049C115.632 459.615 131.508 432.117 151.927 440.616V440.616C167.487 447.093 183.093 431.487 176.616 415.927V415.927C168.117 395.508 195.615 379.632 209.049 397.202V397.202C219.286 410.591 240.604 404.879 242.775 388.166V388.166Z" fill="#0ABBEF"/>
</g>
<circle cx="261.5" cy="525.5" r="92.5" stroke="#0F84A6" stroke-width="16"/>
<mask id="mask1" mask-type="alpha" maskUnits="userSpaceOnUse" x="193" y="30" width="323" height="323">
<path fill-rule="evenodd" clip-rule="evenodd" d="M354.5 353C443.694 353 516 280.694 516 191.5C516 102.306 443.694 30 354.5 30C265.306 30 193 102.306 193 191.5C193 280.694 265.306 353 354.5 353ZM354.5 257C390.675 257 420 227.675 420 191.5C420 155.325 390.675 126 354.5 126C318.325 126 289 155.325 289 191.5C289 227.675 318.325 257 354.5 257Z" fill="#C4C4C4"/>
</mask>
<g mask="url(#mask1)">
<path d="M335.775 54.1656C338.624 32.2318 370.376 32.2318 373.225 54.1656V54.1656C375.396 70.8793 396.714 76.5914 406.951 63.2023V63.2023C420.385 45.6316 447.883 61.5078 439.384 81.9275V81.9275C432.907 97.4874 448.513 113.093 464.073 106.616V106.616C484.492 98.1167 500.368 125.615 482.798 139.049V139.049C469.409 149.286 475.121 170.604 491.834 172.775V172.775C513.768 175.624 513.768 207.376 491.834 210.225V210.225C475.121 212.396 469.409 233.714 482.798 243.951V243.951C500.368 257.385 484.492 284.883 464.073 276.384V276.384C448.513 269.907 432.907 285.513 439.384 301.073V301.073C447.883 321.492 420.385 337.368 406.951 319.798V319.798C396.714 306.409 375.396 312.121 373.225 328.834V328.834C370.376 350.768 338.624 350.768 335.775 328.834V328.834C333.604 312.121 312.286 306.409 302.049 319.798V319.798C288.615 337.368 261.117 321.492 269.616 301.073V301.073C276.093 285.513 260.487 269.907 244.927 276.384V276.384C224.508 284.883 208.632 257.385 226.202 243.951V243.951C239.591 233.714 233.879 212.396 217.166 210.225V210.225C195.232 207.376 195.232 175.624 217.166 172.775V172.775C233.879 170.604 239.591 149.286 226.202 139.049V139.049C208.632 125.615 224.508 98.1167 244.927 106.616V106.616C260.487 113.093 276.093 97.4874 269.616 81.9275V81.9275C261.117 61.5078 288.615 45.6316 302.049 63.2023V63.2023C312.286 76.5914 333.604 70.8793 335.775 54.1656V54.1656Z" fill="#0ABBEF"/>
</g>
<circle cx="354.5" cy="191.5" r="92.5" stroke="#0F84A6" stroke-width="16"/>
<mask id="mask2" mask-type="alpha" maskUnits="userSpaceOnUse" x="-43" y="581" width="212" height="212">
<path fill-rule="evenodd" clip-rule="evenodd" d="M63 793C121.542 793 169 745.542 169 687C169 628.458 121.542 581 63 581C4.45782 581 -43 628.458 -43 687C-43 745.542 4.45782 793 63 793ZM62.9999 729.991C86.7431 729.991 105.991 710.743 105.991 687C105.991 663.257 86.7431 644.009 62.9999 644.009C39.2568 644.009 20.0092 663.257 20.0092 687C20.0092 710.743 39.2568 729.991 62.9999 729.991Z" fill="#C4C4C4"/>
</mask>
<g mask="url(#mask2)">
<path d="M50.7098 596.861C52.5797 582.465 73.4203 582.465 75.2902 596.861V596.861C76.7151 607.831 90.7069 611.58 97.4259 602.792V602.792C106.243 591.26 124.292 601.68 118.713 615.082V615.082C114.462 625.295 124.705 635.538 134.918 631.287V631.287C148.32 625.708 158.74 643.757 147.208 652.574V652.574C138.42 659.293 142.169 673.285 153.139 674.71V674.71C167.535 676.58 167.535 697.42 153.139 699.29V699.29C142.169 700.715 138.42 714.707 147.208 721.426V721.426C158.74 730.243 148.32 748.292 134.918 742.713V742.713C124.705 738.462 114.462 748.705 118.713 758.917V758.917C124.292 772.32 106.243 782.74 97.4259 771.208V771.208C90.7069 762.42 76.7151 766.169 75.2902 777.139V777.139C73.4203 791.535 52.5797 791.535 50.7098 777.139V777.139C49.2849 766.169 35.2931 762.42 28.5741 771.208V771.208C19.7567 782.74 1.70814 772.32 7.28686 758.917V758.917C11.5379 748.705 1.29514 738.462 -8.91757 742.713V742.713C-22.3199 748.292 -32.7403 730.243 -21.2078 721.426V721.426C-12.4199 714.707 -16.169 700.715 -27.139 699.29V699.29C-41.5352 697.42 -41.5352 676.58 -27.139 674.71V674.71C-16.169 673.285 -12.4199 659.293 -21.2078 652.574V652.574C-32.7403 643.757 -22.3199 625.708 -8.91757 631.287V631.287C1.29514 635.538 11.5379 625.295 7.28686 615.082V615.082C1.70814 601.68 19.7567 591.26 28.5741 602.792V602.792C35.2931 611.58 49.2849 607.831 50.7098 596.861V596.861Z" fill="#C4C4C4"/>
</g>
<circle cx="62.9999" cy="687" r="60.7121" stroke="#E0E0E0" stroke-width="16"/>
<mask id="mask3" mask-type="alpha" maskUnits="userSpaceOnUse" x="367" y="258" width="323" height="323">
<path fill-rule="evenodd" clip-rule="evenodd" d="M528.5 581C617.694 581 690 508.694 690 419.5C690 330.306 617.694 258 528.5 258C439.306 258 367 330.306 367 419.5C367 508.694 439.306 581 528.5 581ZM528.5 485C564.675 485 594 455.675 594 419.5C594 383.325 564.675 354 528.5 354C492.325 354 463 383.325 463 419.5C463 455.675 492.325 485 528.5 485Z" fill="#C4C4C4"/>
</mask>
<g mask="url(#mask3)">
<path fill-rule="evenodd" clip-rule="evenodd" d="M547.225 282.166C544.376 260.232 512.624 260.232 509.775 282.166C507.604 298.879 486.286 304.591 476.049 291.202C462.615 273.632 435.117 289.508 443.616 309.928C450.093 325.487 434.487 341.093 418.927 334.616C398.508 326.117 382.632 353.615 400.202 367.049C413.591 377.286 407.879 398.604 391.166 400.775C369.232 403.624 369.232 435.376 391.166 438.225C407.879 440.396 413.591 461.714 400.202 471.951C382.632 485.385 398.508 512.883 418.927 504.384C434.487 497.907 450.093 513.513 443.616 529.073C435.117 549.492 462.615 565.368 476.049 547.798C486.286 534.409 507.604 540.121 509.775 556.835C512.624 578.768 544.376 578.768 547.225 556.835C549.396 540.121 570.714 534.409 580.951 547.798C594.385 565.368 621.883 549.492 613.384 529.073C606.907 513.513 622.513 497.907 638.073 504.384C658.492 512.883 674.368 485.385 656.798 471.951C643.409 461.714 649.121 440.396 665.834 438.225C684.967 435.74 687.41 411.263 673.165 403.16L669.5 407L659.5 419L639.5 414.5L635.5 407L622 419L589.5 407V371.5L559 361.5L569 351.5V339L589.5 330.5V310.5L614.808 299.784C612.694 284.977 592.035 276.705 580.951 291.202C570.714 304.591 549.396 298.879 547.225 282.166Z" fill="#949494"/>
</g>
<path fill-rule="evenodd" clip-rule="evenodd" d="M581.231 333.929C565.902 324.462 547.839 319 528.5 319C472.995 319 428 363.995 428 419.5C428 475.005 472.995 520 528.5 520C584.005 520 629 475.005 629 419.5C629 417.304 628.93 415.125 628.791 412.964L622 419L612.914 415.645C612.971 416.923 613 418.208 613 419.5C613 466.168 575.168 504 528.5 504C481.832 504 444 466.168 444 419.5C444 372.832 481.832 335 528.5 335C543.174 335 556.975 338.74 569 345.32V339L581.231 333.929Z" fill="#B9B7B7"/>
<path fill-rule="evenodd" clip-rule="evenodd" d="M724.048 316.526L753 327.216L766.5 315.216L770.5 322.716L790.5 327.216L800.5 315.216L804.165 311.376C802.079 310.19 799.636 309.355 796.834 308.991C780.121 306.82 774.409 285.502 787.798 275.265C805.368 261.831 789.492 234.333 769.073 242.832C753.513 249.309 737.907 233.703 744.384 218.143C745.87 214.572 746.256 211.139 745.808 208L720.5 218.716V238.716L700 247.216V259.716L690 269.716L720.5 279.716V303.809C722.091 307.866 723.29 312.121 724.048 316.526Z" fill="#FF0000"/>
<path fill-rule="evenodd" clip-rule="evenodd" d="M759.791 321.18C757.645 287.752 739.157 258.772 712.231 242.145L700 247.216V253.536C725.16 267.302 742.55 293.496 743.914 323.861L753 327.216L759.791 321.18Z" fill="#BF0000"/>
<mask id="mask4" mask-type="alpha" maskUnits="userSpaceOnUse" x="409" y="-113" width="212" height="212">
<path fill-rule="evenodd" clip-rule="evenodd" d="M515 99C573.542 99 621 51.5422 621 -7C621 -65.5422 573.542 -113 515 -113C456.458 -113 409 -65.5422 409 -7C409 51.5422 456.458 99 515 99ZM515 35.9905C538.743 35.9905 557.991 16.7429 557.991 -7.00018C557.991 -30.7433 538.743 -49.9909 515 -49.9909C491.257 -49.9909 472.009 -30.7433 472.009 -7.00018C472.009 16.7429 491.257 35.9905 515 35.9905Z" fill="#C4C4C4"/>
</mask>
<g mask="url(#mask4)">
<path d="M502.71 -97.1391C504.58 -111.535 525.42 -111.535 527.29 -97.1391V-97.1391C528.715 -86.1691 542.707 -82.42 549.426 -91.2079V-91.2079C558.243 -102.74 576.292 -92.3201 570.713 -78.9177V-78.9177C566.462 -68.705 576.705 -58.4622 586.918 -62.7133V-62.7133C600.32 -68.292 610.74 -50.2434 599.208 -41.426V-41.426C590.42 -34.707 594.169 -20.7152 605.139 -19.2903V-19.2903C619.535 -17.4205 619.535 3.42022 605.139 5.29008V5.29008C594.169 6.71494 590.42 20.7068 599.208 27.4258V27.4258C610.74 36.2432 600.32 54.2917 586.918 48.713V48.713C576.705 44.462 566.462 54.7047 570.713 64.9175V64.9175C576.292 78.3198 558.243 88.7401 549.426 77.2077V77.2077C542.707 68.4198 528.715 72.1689 527.29 83.1389V83.1389C525.42 97.535 504.58 97.535 502.71 83.1389V83.1389C501.285 72.1689 487.293 68.4198 480.574 77.2077V77.2077C471.757 88.7401 453.708 78.3198 459.287 64.9175V64.9175C463.538 54.7047 453.295 44.462 443.082 48.713V48.713C429.68 54.2917 419.26 36.2432 430.792 27.4258V27.4258C439.58 20.7068 435.831 6.71494 424.861 5.29008V5.29008C410.465 3.42022 410.465 -17.4205 424.861 -19.2903V-19.2903C435.831 -20.7152 439.58 -34.707 430.792 -41.426V-41.426C419.26 -50.2434 429.68 -68.292 443.082 -62.7133V-62.7133C453.295 -58.4622 463.538 -68.705 459.287 -78.9177V-78.9177C453.708 -92.3201 471.757 -102.74 480.574 -91.2079V-91.2079C487.293 -82.42 501.285 -86.1691 502.71 -97.1391V-97.1391Z" fill="#C4C4C4"/>
</g>
<circle cx="515" cy="-7.00032" r="60.7121" stroke="#E0E0E0" stroke-width="16"/>
</svg>
